<svg width="352" height="32" viewBox="0 0 352 32" fill="none" xmlns="http://www.w3.org/2000/svg">
<path d="M24 26.8468L9.16599 16.331L24 5.81526L19.4332 2.58493L0 16.331L19.4332 30.0771L24 26.8468Z" fill="#F7B0FF"/>
<path d="M327.054 6.34457L342.063 16.5309L327.408 27.3722L332.029 30.5011L351.227 16.3285L331.566 3.01401L327.054 6.34457Z" fill="#F7B0FF"/>
<path d="M37.0312 28V13.3281H32.375V11.0938H37.0312V9.90625C37.0312 8.82292 37.1875 7.875 37.5 7.0625C37.8229 6.23958 38.276 5.55208 38.8594 5C39.4323 4.44792 40.125 4.03125 40.9375 3.75C41.75 3.46875 42.6562 3.32812 43.6562 3.32812C44.0729 3.32812 44.4844 3.35417 44.8906 3.40625C45.2969 3.44792 45.6979 3.50521 46.0938 3.57812C46.3542 3.63021 46.6146 3.6875 46.875 3.75C47.1354 3.80208 47.401 3.86458 47.6719 3.9375L47.3281 6.32812C46.901 6.18229 46.401 6.05729 45.8281 5.95312C45.2656 5.83854 44.6615 5.78125 44.0156 5.78125C43.3594 5.78125 42.776 5.86458 42.2656 6.03125C41.7656 6.1875 41.349 6.42708 41.0156 6.75C40.6615 7.08333 40.3906 7.51562 40.2031 8.04688C40.026 8.57812 39.9375 9.19792 39.9375 9.90625V11.0938H46.4531V13.3281H39.9375V28H37.0312ZM63.0156 10.7812C63.5469 10.7812 64.099 10.8177 64.6719 10.8906C65.2552 10.9635 65.6927 11.0625 65.9844 11.1875L65.5938 14.0156C65.0312 13.8906 64.4948 13.8021 63.9844 13.75C63.4844 13.6875 62.9583 13.6562 62.4062 13.6562C61.6979 13.6562 61.0573 13.7448 60.4844 13.9219C59.9115 14.0885 59.4115 14.3385 58.9844 14.6719C58.599 14.9635 58.2604 15.3229 57.9688 15.75C57.6875 16.1667 57.4531 16.6354 57.2656 17.1562V28H54.3594V11.0938H57.1094L57.2344 13.3594L57.25 13.7812C57.9375 12.8542 58.7604 12.125 59.7188 11.5938C60.6875 11.0521 61.7865 10.7812 63.0156 10.7812ZM82.2656 28C82.151 27.7812 82.0573 27.5104 81.9844 27.1875C81.9219 26.8542 81.875 26.5104 81.8438 26.1562C81.5521 26.4479 81.224 26.724 80.8594 26.9844C80.5052 27.2448 80.1146 27.474 79.6875 27.6719C79.25 27.8698 78.7865 28.026 78.2969 28.1406C77.8073 28.2552 77.2865 28.3125 76.7344 28.3125C75.8385 28.3125 75.026 28.1823 74.2969 27.9219C73.5781 27.6615 72.9688 27.3073 72.4688 26.8594C71.9583 26.4219 71.5625 25.901 71.2812 25.2969C71.0104 24.6823 70.875 24.0208 70.875 23.3125C70.875 22.3854 71.0573 21.5729 71.4219 20.875C71.7969 20.1771 72.3229 19.5938 73 19.125C73.6771 18.6667 74.4896 18.3229 75.4375 18.0938C76.3958 17.8646 77.4635 17.75 78.6406 17.75H81.7969V16.4219C81.7969 15.9115 81.7031 15.4531 81.5156 15.0469C81.3281 14.6406 81.0625 14.2917 80.7188 14C80.375 13.7188 79.9531 13.5 79.4531 13.3438C78.9635 13.1875 78.4115 13.1094 77.7969 13.1094C77.224 13.1094 76.7083 13.1823 76.25 13.3281C75.8021 13.474 75.4219 13.6667 75.1094 13.9062C74.7969 14.1458 74.5521 14.4323 74.375 14.7656C74.2083 15.0885 74.125 15.4271 74.125 15.7812H71.2188C71.2292 15.1667 71.3854 14.5625 71.6875 13.9688C72 13.375 72.4479 12.8385 73.0312 12.3594C73.6042 11.8906 74.3021 11.5104 75.125 11.2188C75.9583 10.9271 76.901 10.7812 77.9531 10.7812C78.9115 10.7812 79.8021 10.901 80.625 11.1406C81.4479 11.3698 82.1615 11.7188 82.7656 12.1875C83.3594 12.6667 83.8281 13.2604 84.1719 13.9688C84.5156 14.6771 84.6875 15.5052 84.6875 16.4531V24.3125C84.6875 24.875 84.7396 25.474 84.8438 26.1094C84.9479 26.7344 85.0938 27.2812 85.2812 27.75V28H82.2656ZM77.1562 25.7969C77.7188 25.7969 78.2448 25.724 78.7344 25.5781C79.224 25.4323 79.6719 25.2396 80.0781 25C80.474 24.7604 80.8177 24.4896 81.1094 24.1875C81.401 23.875 81.6302 23.5521 81.7969 23.2188V19.7969H79.1094C78.1094 19.7969 77.2344 19.8854 76.4844 20.0625C75.7448 20.2292 75.1562 20.4896 74.7188 20.8438C74.4062 21.0938 74.1667 21.3906 74 21.7344C73.8438 22.0781 73.7656 22.4688 73.7656 22.9062C73.7656 23.3229 73.8333 23.7083 73.9688 24.0625C74.1146 24.4167 74.3281 24.7188 74.6094 24.9688C74.8906 25.2292 75.2448 25.4323 75.6719 25.5781C76.099 25.724 76.5938 25.7969 77.1562 25.7969ZM90.375 28V11.0938H92.9688L93.1719 13.5938C93.4219 13.2396 93.6927 12.9167 93.9844 12.625C94.2865 12.3229 94.6042 12.0625 94.9375 11.8438C95.4375 11.5104 95.9792 11.2552 96.5625 11.0781C97.1562 10.8906 97.7812 10.7917 98.4375 10.7812C99.3229 10.7812 100.125 10.9062 100.844 11.1562C101.573 11.4062 102.193 11.7969 102.703 12.3281C103.214 12.8594 103.604 13.5365 103.875 14.3594C104.156 15.1719 104.297 16.1406 104.297 17.2656V28H101.406V17.3281C101.406 16.5781 101.323 15.9427 101.156 15.4219C100.99 14.901 100.745 14.4792 100.422 14.1562C100.089 13.8333 99.6823 13.599 99.2031 13.4531C98.7344 13.3073 98.1927 13.2344 97.5781 13.2344C97.0469 13.2344 96.5521 13.3125 96.0938 13.4688C95.6354 13.6146 95.2135 13.8177 94.8281 14.0781C94.5156 14.3073 94.224 14.5729 93.9531 14.875C93.6927 15.1771 93.4635 15.5104 93.2656 15.875V28H90.375ZM116.797 25.9688C117.318 25.9688 117.823 25.8854 118.312 25.7188C118.812 25.5521 119.255 25.3177 119.641 25.0156C120.026 24.724 120.333 24.3802 120.562 23.9844C120.802 23.5781 120.927 23.1406 120.938 22.6719H123.672C123.661 23.4219 123.464 24.1406 123.078 24.8281C122.703 25.5052 122.198 26.099 121.562 26.6094C120.927 27.1302 120.198 27.5469 119.375 27.8594C118.552 28.1615 117.693 28.3125 116.797 28.3125C115.516 28.3125 114.396 28.0833 113.438 27.625C112.479 27.1667 111.682 26.5469 111.047 25.7656C110.401 24.9948 109.917 24.1042 109.594 23.0938C109.271 22.0729 109.109 21 109.109 19.875V19.2188C109.109 18.1042 109.271 17.0365 109.594 16.0156C109.917 14.9948 110.401 14.0938 111.047 13.3125C111.682 12.5417 112.479 11.9271 113.438 11.4688C114.396 11.0104 115.516 10.7812 116.797 10.7812C117.797 10.7812 118.714 10.9427 119.547 11.2656C120.391 11.5781 121.12 12.0052 121.734 12.5469C122.339 13.099 122.812 13.75 123.156 14.5C123.5 15.25 123.672 16.0521 123.672 16.9062H120.938C120.927 16.3958 120.812 15.9167 120.594 15.4688C120.385 15.0104 120.099 14.6094 119.734 14.2656C119.37 13.9219 118.932 13.651 118.422 13.4531C117.922 13.2552 117.38 13.1562 116.797 13.1562C115.901 13.1562 115.146 13.3385 114.531 13.7031C113.927 14.0573 113.438 14.5208 113.062 15.0938C112.688 15.6771 112.417 16.3281 112.25 17.0469C112.094 17.7656 112.016 18.4896 112.016 19.2188V19.875C112.016 20.6146 112.094 21.349 112.25 22.0781C112.417 22.7969 112.688 23.4427 113.062 24.0156C113.427 24.599 113.911 25.0729 114.516 25.4375C115.13 25.7917 115.891 25.9688 116.797 25.9688ZM129.266 11.0938H137.906V25.5H143.422V28H129.266V25.5H135.016V13.6094H129.266V11.0938ZM134.641 6.65625C134.641 6.40625 134.677 6.17188 134.75 5.95312C134.833 5.73438 134.958 5.54688 135.125 5.39062C135.26 5.25521 135.432 5.15104 135.641 5.07812C135.859 4.99479 136.104 4.95312 136.375 4.95312C136.646 4.95312 136.885 4.99479 137.094 5.07812C137.302 5.15104 137.474 5.25521 137.609 5.39062C137.776 5.53646 137.901 5.71875 137.984 5.9375C138.068 6.15625 138.109 6.39583 138.109 6.65625C138.109 7.125 137.964 7.51562 137.672 7.82812C137.38 8.14062 136.948 8.29688 136.375 8.29688C135.792 8.29688 135.354 8.14062 135.062 7.82812C134.781 7.51562 134.641 7.125 134.641 6.65625ZM148.031 28V11.0938H150.625L150.828 13.5938C151.078 13.2396 151.349 12.9167 151.641 12.625C151.943 12.3229 152.26 12.0625 152.594 11.8438C153.094 11.5104 153.635 11.2552 154.219 11.0781C154.812 10.8906 155.438 10.7917 156.094 10.7812C156.979 10.7812 157.781 10.9062 158.5 11.1562C159.229 11.4062 159.849 11.7969 160.359 12.3281C160.87 12.8594 161.26 13.5365 161.531 14.3594C161.812 15.1719 161.953 16.1406 161.953 17.2656V28H159.062V17.3281C159.062 16.5781 158.979 15.9427 158.812 15.4219C158.646 14.901 158.401 14.4792 158.078 14.1562C157.745 13.8333 157.339 13.599 156.859 13.4531C156.391 13.3073 155.849 13.2344 155.234 13.2344C154.703 13.2344 154.208 13.3125 153.75 13.4688C153.292 13.6146 152.87 13.8177 152.484 14.0781C152.172 14.3073 151.88 14.5729 151.609 14.875C151.349 15.1771 151.12 15.5104 150.922 15.875V28H148.031ZM174.719 28.3125C173.531 28.3125 172.438 28.1094 171.438 27.7031C170.448 27.2969 169.599 26.7292 168.891 26C168.182 25.2708 167.63 24.4062 167.234 23.4062C166.839 22.4062 166.641 21.3177 166.641 20.1406V19.4844C166.641 18.1198 166.859 16.901 167.297 15.8281C167.734 14.7448 168.318 13.8281 169.047 13.0781C169.766 12.3385 170.583 11.7708 171.5 11.375C172.427 10.9792 173.375 10.7812 174.344 10.7812C175.562 10.7812 176.625 10.9948 177.531 11.4219C178.448 11.8385 179.208 12.4167 179.812 13.1562C180.417 13.9062 180.865 14.7865 181.156 15.7969C181.458 16.8073 181.609 17.901 181.609 19.0781V20.375H169.531V20.4844C169.604 21.3073 169.766 22.0312 170.016 22.6562C170.276 23.2812 170.63 23.8333 171.078 24.3125C171.536 24.8229 172.089 25.224 172.734 25.5156C173.38 25.8073 174.094 25.9531 174.875 25.9531C175.906 25.9531 176.823 25.7448 177.625 25.3281C178.427 24.9115 179.094 24.3594 179.625 23.6719L181.391 25.0469C180.828 25.901 179.984 26.6615 178.859 27.3281C177.745 27.9844 176.365 28.3125 174.719 28.3125ZM174.344 13.1562C173.76 13.1562 173.208 13.2656 172.688 13.4844C172.167 13.6927 171.698 14 171.281 14.4062C170.865 14.8229 170.51 15.3333 170.219 15.9375C169.938 16.5312 169.74 17.2188 169.625 18H178.719V17.8594C178.719 17.3385 178.62 16.7812 178.422 16.1875C178.224 15.5833 177.948 15.0625 177.594 14.625C177.24 14.1875 176.792 13.8333 176.25 13.5625C175.719 13.2917 175.083 13.1562 174.344 13.1562ZM216.922 23.5156C216.922 23.1719 216.854 22.8646 216.719 22.5938C216.583 22.3125 216.354 22.0573 216.031 21.8281C215.708 21.599 215.281 21.3906 214.75 21.2031C214.219 21.0052 213.557 20.8281 212.766 20.6719C211.797 20.474 210.911 20.2344 210.109 19.9531C209.318 19.6719 208.641 19.3333 208.078 18.9375C207.505 18.5521 207.062 18.099 206.75 17.5781C206.438 17.0469 206.281 16.4323 206.281 15.7344C206.281 15.0469 206.443 14.4062 206.766 13.8125C207.089 13.2083 207.542 12.6823 208.125 12.2344C208.708 11.7865 209.401 11.4323 210.203 11.1719C211.016 10.9115 211.906 10.7812 212.875 10.7812C213.917 10.7812 214.854 10.9167 215.688 11.1875C216.521 11.4583 217.229 11.8333 217.812 12.3125C218.396 12.7917 218.844 13.3542 219.156 14C219.479 14.6354 219.641 15.3229 219.641 16.0625H216.75C216.75 15.6979 216.656 15.3438 216.469 15C216.281 14.6458 216.021 14.3333 215.688 14.0625C215.354 13.7917 214.948 13.5729 214.469 13.4062C214 13.2396 213.469 13.1562 212.875 13.1562C212.26 13.1562 211.719 13.224 211.25 13.3594C210.792 13.4948 210.411 13.6771 210.109 13.9062C209.797 14.1354 209.562 14.401 209.406 14.7031C209.25 15.0052 209.172 15.3177 209.172 15.6406C209.172 15.974 209.234 16.2708 209.359 16.5312C209.484 16.7917 209.703 17.026 210.016 17.2344C210.318 17.4427 210.724 17.6302 211.234 17.7969C211.755 17.9635 212.411 18.125 213.203 18.2812C214.245 18.5 215.177 18.7552 216 19.0469C216.823 19.3281 217.516 19.6667 218.078 20.0625C218.641 20.4688 219.068 20.9375 219.359 21.4688C219.661 22 219.812 22.6146 219.812 23.3125C219.812 24.0625 219.641 24.7448 219.297 25.3594C218.964 25.974 218.495 26.5 217.891 26.9375C217.286 27.375 216.562 27.7135 215.719 27.9531C214.875 28.1927 213.953 28.3125 212.953 28.3125C211.807 28.3125 210.786 28.1615 209.891 27.8594C208.995 27.5469 208.24 27.1354 207.625 26.625C207 26.125 206.521 25.5417 206.188 24.875C205.865 24.2083 205.703 23.5156 205.703 22.7969H208.594C208.635 23.3906 208.792 23.8906 209.062 24.2969C209.344 24.7031 209.693 25.0312 210.109 25.2812C210.516 25.5312 210.969 25.7083 211.469 25.8125C211.969 25.9167 212.464 25.9688 212.953 25.9688C213.724 25.9688 214.396 25.8802 214.969 25.7031C215.542 25.5156 215.99 25.2604 216.312 24.9375C216.51 24.7396 216.661 24.5208 216.766 24.2812C216.87 24.0417 216.922 23.7865 216.922 23.5156ZM236.016 28C235.901 27.7812 235.807 27.5104 235.734 27.1875C235.672 26.8542 235.625 26.5104 235.594 26.1562C235.302 26.4479 234.974 26.724 234.609 26.9844C234.255 27.2448 233.865 27.474 233.438 27.6719C233 27.8698 232.536 28.026 232.047 28.1406C231.557 28.2552 231.036 28.3125 230.484 28.3125C229.589 28.3125 228.776 28.1823 228.047 27.9219C227.328 27.6615 226.719 27.3073 226.219 26.8594C225.708 26.4219 225.312 25.901 225.031 25.2969C224.76 24.6823 224.625 24.0208 224.625 23.3125C224.625 22.3854 224.807 21.5729 225.172 20.875C225.547 20.1771 226.073 19.5938 226.75 19.125C227.427 18.6667 228.24 18.3229 229.188 18.0938C230.146 17.8646 231.214 17.75 232.391 17.75H235.547V16.4219C235.547 15.9115 235.453 15.4531 235.266 15.0469C235.078 14.6406 234.812 14.2917 234.469 14C234.125 13.7188 233.703 13.5 233.203 13.3438C232.714 13.1875 232.161 13.1094 231.547 13.1094C230.974 13.1094 230.458 13.1823 230 13.3281C229.552 13.474 229.172 13.6667 228.859 13.9062C228.547 14.1458 228.302 14.4323 228.125 14.7656C227.958 15.0885 227.875 15.4271 227.875 15.7812H224.969C224.979 15.1667 225.135 14.5625 225.438 13.9688C225.75 13.375 226.198 12.8385 226.781 12.3594C227.354 11.8906 228.052 11.5104 228.875 11.2188C229.708 10.9271 230.651 10.7812 231.703 10.7812C232.661 10.7812 233.552 10.901 234.375 11.1406C235.198 11.3698 235.911 11.7188 236.516 12.1875C237.109 12.6667 237.578 13.2604 237.922 13.9688C238.266 14.6771 238.438 15.5052 238.438 16.4531V24.3125C238.438 24.875 238.49 25.474 238.594 26.1094C238.698 26.7344 238.844 27.2812 239.031 27.75V28H236.016ZM230.906 25.7969C231.469 25.7969 231.995 25.724 232.484 25.5781C232.974 25.4323 233.422 25.2396 233.828 25C234.224 24.7604 234.568 24.4896 234.859 24.1875C235.151 23.875 235.38 23.5521 235.547 23.2188V19.7969H232.859C231.859 19.7969 230.984 19.8854 230.234 20.0625C229.495 20.2292 228.906 20.4896 228.469 20.8438C228.156 21.0938 227.917 21.3906 227.75 21.7344C227.594 22.0781 227.516 22.4688 227.516 22.9062C227.516 23.3229 227.583 23.7083 227.719 24.0625C227.865 24.4167 228.078 24.7188 228.359 24.9688C228.641 25.2292 228.995 25.4323 229.422 25.5781C229.849 25.724 230.344 25.7969 230.906 25.7969ZM244.125 28V11.0938H246.719L246.922 13.5938C247.172 13.2396 247.443 12.9167 247.734 12.625C248.036 12.3229 248.354 12.0625 248.688 11.8438C249.188 11.5104 249.729 11.2552 250.312 11.0781C250.906 10.8906 251.531 10.7917 252.188 10.7812C253.073 10.7812 253.875 10.9062 254.594 11.1562C255.323 11.4062 255.943 11.7969 256.453 12.3281C256.964 12.8594 257.354 13.5365 257.625 14.3594C257.906 15.1719 258.047 16.1406 258.047 17.2656V28H255.156V17.3281C255.156 16.5781 255.073 15.9427 254.906 15.4219C254.74 14.901 254.495 14.4792 254.172 14.1562C253.839 13.8333 253.432 13.599 252.953 13.4531C252.484 13.3073 251.943 13.2344 251.328 13.2344C250.797 13.2344 250.302 13.3125 249.844 13.4688C249.385 13.6146 248.964 13.8177 248.578 14.0781C248.266 14.3073 247.974 14.5729 247.703 14.875C247.443 15.1771 247.214 15.5104 247.016 15.875V28H244.125ZM270.188 7V11.0938H276.625V13.3281H270.188V22.5156C270.188 23.1719 270.271 23.7135 270.438 24.1406C270.604 24.5677 270.833 24.9062 271.125 25.1562C271.417 25.4167 271.75 25.599 272.125 25.7031C272.51 25.8073 272.917 25.8594 273.344 25.8594C273.656 25.8594 273.979 25.8438 274.312 25.8125C274.646 25.7708 274.974 25.724 275.297 25.6719C275.609 25.6198 275.901 25.5677 276.172 25.5156C276.453 25.4531 276.682 25.401 276.859 25.3594L277.266 27.4062C277.026 27.5521 276.734 27.6823 276.391 27.7969C276.047 27.901 275.672 27.9896 275.266 28.0625C274.859 28.1458 274.427 28.2083 273.969 28.25C273.521 28.2917 273.073 28.3125 272.625 28.3125C271.875 28.3125 271.172 28.2083 270.516 28C269.87 27.7812 269.307 27.4375 268.828 26.9688C268.349 26.5104 267.969 25.9167 267.688 25.1875C267.417 24.4479 267.281 23.5573 267.281 22.5156V13.3281H262.844V11.0938H267.281V7H270.188ZM281.75 19.3906C281.75 18.1719 281.927 17.0417 282.281 16C282.635 14.9479 283.146 14.0365 283.812 13.2656C284.469 12.4948 285.271 11.8906 286.219 11.4531C287.167 11.0052 288.234 10.7812 289.422 10.7812C290.62 10.7812 291.693 11.0052 292.641 11.4531C293.599 11.8906 294.411 12.4948 295.078 13.2656C295.734 14.0365 296.24 14.9479 296.594 16C296.948 17.0417 297.125 18.1719 297.125 19.3906V19.7344C297.125 20.9531 296.948 22.0833 296.594 23.125C296.24 24.1667 295.734 25.0729 295.078 25.8438C294.411 26.6146 293.604 27.2188 292.656 27.6562C291.708 28.0938 290.641 28.3125 289.453 28.3125C288.255 28.3125 287.177 28.0938 286.219 27.6562C285.271 27.2188 284.469 26.6146 283.812 25.8438C283.146 25.0729 282.635 24.1667 282.281 23.125C281.927 22.0833 281.75 20.9531 281.75 19.7344V19.3906ZM284.641 19.7344C284.641 20.5677 284.74 21.3646 284.938 22.125C285.135 22.875 285.438 23.5365 285.844 24.1094C286.24 24.6823 286.74 25.1354 287.344 25.4688C287.948 25.8021 288.651 25.9688 289.453 25.9688C290.245 25.9688 290.938 25.8021 291.531 25.4688C292.135 25.1354 292.641 24.6823 293.047 24.1094C293.443 23.5365 293.74 22.875 293.938 22.125C294.135 21.3646 294.234 20.5677 294.234 19.7344V19.3906C294.234 18.5677 294.13 17.7812 293.922 17.0312C293.724 16.2708 293.427 15.6042 293.031 15.0312C292.625 14.4583 292.12 14.0052 291.516 13.6719C290.922 13.3281 290.224 13.1562 289.422 13.1562C288.62 13.1562 287.922 13.3281 287.328 13.6719C286.734 14.0052 286.24 14.4583 285.844 15.0312C285.438 15.6042 285.135 16.2708 284.938 17.0312C284.74 17.7812 284.641 18.5677 284.641 19.3906V19.7344ZM313.016 23.5156C313.016 23.1719 312.948 22.8646 312.812 22.5938C312.677 22.3125 312.448 22.0573 312.125 21.8281C311.802 21.599 311.375 21.3906 310.844 21.2031C310.312 21.0052 309.651 20.8281 308.859 20.6719C307.891 20.474 307.005 20.2344 306.203 19.9531C305.411 19.6719 304.734 19.3333 304.172 18.9375C303.599 18.5521 303.156 18.099 302.844 17.5781C302.531 17.0469 302.375 16.4323 302.375 15.7344C302.375 15.0469 302.536 14.4062 302.859 13.8125C303.182 13.2083 303.635 12.6823 304.219 12.2344C304.802 11.7865 305.495 11.4323 306.297 11.1719C307.109 10.9115 308 10.7812 308.969 10.7812C310.01 10.7812 310.948 10.9167 311.781 11.1875C312.615 11.4583 313.323 11.8333 313.906 12.3125C314.49 12.7917 314.938 13.3542 315.25 14C315.573 14.6354 315.734 15.3229 315.734 16.0625H312.844C312.844 15.6979 312.75 15.3438 312.562 15C312.375 14.6458 312.115 14.3333 311.781 14.0625C311.448 13.7917 311.042 13.5729 310.562 13.4062C310.094 13.2396 309.562 13.1562 308.969 13.1562C308.354 13.1562 307.812 13.224 307.344 13.3594C306.885 13.4948 306.505 13.6771 306.203 13.9062C305.891 14.1354 305.656 14.401 305.5 14.7031C305.344 15.0052 305.266 15.3177 305.266 15.6406C305.266 15.974 305.328 16.2708 305.453 16.5312C305.578 16.7917 305.797 17.026 306.109 17.2344C306.411 17.4427 306.818 17.6302 307.328 17.7969C307.849 17.9635 308.505 18.125 309.297 18.2812C310.339 18.5 311.271 18.7552 312.094 19.0469C312.917 19.3281 313.609 19.6667 314.172 20.0625C314.734 20.4688 315.161 20.9375 315.453 21.4688C315.755 22 315.906 22.6146 315.906 23.3125C315.906 24.0625 315.734 24.7448 315.391 25.3594C315.057 25.974 314.589 26.5 313.984 26.9375C313.38 27.375 312.656 27.7135 311.812 27.9531C310.969 28.1927 310.047 28.3125 309.047 28.3125C307.901 28.3125 306.88 28.1615 305.984 27.8594C305.089 27.5469 304.333 27.1354 303.719 26.625C303.094 26.125 302.615 25.5417 302.281 24.875C301.958 24.2083 301.797 23.5156 301.797 22.7969H304.688C304.729 23.3906 304.885 23.8906 305.156 24.2969C305.438 24.7031 305.786 25.0312 306.203 25.2812C306.609 25.5312 307.062 25.7083 307.562 25.8125C308.062 25.9167 308.557 25.9688 309.047 25.9688C309.818 25.9688 310.49 25.8802 311.062 25.7031C311.635 25.5156 312.083 25.2604 312.406 24.9375C312.604 24.7396 312.755 24.5208 312.859 24.2812C312.964 24.0417 313.016 23.7865 313.016 23.5156Z" fill="#F0F0F0"/>
</svg>
